<svg width="539" height="478" viewBox="0 0 539 478" fill="none" xmlns="http://www.w3.org/2000/svg">
<path d="M291.338 15.043H297.335C319.997 15.0485 341.729 24.0548 357.751 40.0811C373.774 56.1074 382.774 77.8415 382.774 100.503V263.539H205.852V100.503C205.852 89.2784 208.063 78.1633 212.359 67.7931C216.656 57.4229 222.953 48.0006 230.892 40.0645C238.83 32.1285 248.254 25.834 258.626 21.5408C268.997 17.2475 280.113 15.0396 291.338 15.043Z" fill="#B64CF2"/>
<path d="M326.436 165.397V266.076H247.929V165.397H326.436ZM328.516 163.316H245.849V268.156H328.516V163.316Z" fill="#CA7358"/>
<path d="M328.516 163.312H245.849V184.986H328.516V163.312Z" fill="#CA7358"/>
<path d="M245.406 110.955V266.58H198.154V110.955H245.406ZM247.487 108.875H196.073V268.66H247.487V108.875Z" fill="#A24EEA"/>
<path d="M391.331 79.4516V266.075H328.958V79.4516H391.331ZM393.411 77.3711H326.878V268.155H393.411V77.3711Z" fill="#A24EEA"/>
<path d="M353.924 102.828H354.522C356.782 102.828 358.949 103.726 360.546 105.323C362.144 106.921 363.042 109.088 363.042 111.348V130.55H345.399V111.348C345.399 110.228 345.62 109.12 346.048 108.086C346.477 107.052 347.105 106.113 347.897 105.322C348.688 104.53 349.628 103.903 350.662 103.475C351.696 103.047 352.805 102.827 353.924 102.828Z" fill="#CA7358"/>
<path d="M343.387 117.945H365.06" stroke="#FFB494" stroke-width="4" stroke-linecap="round" stroke-linejoin="round"/>
<path d="M353.924 152.563H354.522C356.782 152.563 358.949 153.46 360.546 155.058C362.144 156.656 363.042 158.823 363.042 161.082V180.285H345.399V161.082C345.399 159.963 345.62 158.855 346.048 157.821C346.477 156.787 347.105 155.847 347.897 155.056C348.688 154.265 349.628 153.637 350.662 153.21C351.696 152.782 352.805 152.562 353.924 152.563Z" fill="#F5EBDD"/>
<path d="M343.387 167.68H365.06" stroke="#FFB494" stroke-width="4" stroke-linecap="round" stroke-linejoin="round"/>
<path d="M353.924 202.293H354.522C356.782 202.293 358.949 203.191 360.546 204.788C362.144 206.386 363.042 208.553 363.042 210.812V230.015H345.399V210.812C345.399 208.553 346.297 206.386 347.895 204.788C349.492 203.191 351.659 202.293 353.919 202.293H353.924Z" fill="#F5EBDD"/>
<path d="M343.387 217.414H365.06" stroke="#FFB494" stroke-width="4" stroke-linecap="round" stroke-linejoin="round"/>
<path d="M353.924 252.027H354.522C356.782 252.027 358.949 252.925 360.546 254.523C362.144 256.12 363.042 258.287 363.042 260.547V278.189H345.399V260.547C345.399 259.428 345.62 258.319 346.048 257.285C346.477 256.251 347.105 255.312 347.897 254.521C348.688 253.73 349.628 253.102 350.662 252.674C351.696 252.247 352.805 252.027 353.924 252.027Z" fill="#30242A"/>
<path d="M393.411 77.3711H326.878V85.6878H393.411V77.3711Z" fill="#A24EEA"/>
<path d="M247.487 104.844H196.073V113.16H247.487V104.844Z" fill="#A24EEA"/>
<path d="M278.361 204.645H260.719V227.327H278.361V204.645Z" fill="#F5EBDD"/>
<path d="M258.701 214.727H280.38" stroke="#FFB494" stroke-width="4" stroke-linecap="round" stroke-linejoin="round"/>
<path d="M269.54 228.338V214.727" stroke="#FFB494" stroke-width="4" stroke-linecap="round" stroke-linejoin="round"/>
<path d="M278.361 245.609H260.719V268.292H278.361V245.609Z" fill="#CA7358"/>
<path d="M258.701 255.688H280.38" stroke="#FFB494" stroke-width="4" stroke-linecap="round" stroke-linejoin="round"/>
<path d="M269.54 269.299V255.688" stroke="#FFB494" stroke-width="4" stroke-linecap="round" stroke-linejoin="round"/>
<path d="M311.628 204.645H293.985V227.327H311.628V204.645Z" fill="#30242A"/>
<path d="M291.973 214.727H313.646" stroke="#FFB494" stroke-width="4" stroke-linecap="round" stroke-linejoin="round"/>
<path d="M302.807 228.338V214.727" stroke="#FFB494" stroke-width="4" stroke-linecap="round" stroke-linejoin="round"/>
<path d="M311.628 245.609H293.985V268.292H311.628V245.609Z" fill="#F5EBDD"/>
<path d="M291.973 255.688H313.646" stroke="#FFB494" stroke-width="4" stroke-linecap="round" stroke-linejoin="round"/>
<path d="M302.807 269.299V255.688" stroke="#FFB494" stroke-width="4" stroke-linecap="round" stroke-linejoin="round"/>
<path d="M257.567 76.6201C264.806 76.6201 270.674 70.7519 270.674 63.5132C270.674 56.2744 264.806 50.4062 257.567 50.4062C250.328 50.4062 244.46 56.2744 244.46 63.5132C244.46 70.7519 250.328 76.6201 257.567 76.6201Z" fill="#F5EBDD"/>
<path d="M405.457 263.621H183.17V278.741H405.457V263.621Z" fill="#F5EBDD"/>
<path d="M297.825 0H290.819C235.551 0 190.748 44.8029 190.748 100.07V278.741H397.916V100.07C397.9 44.8029 353.092 0 297.825 0ZM286.756 263.621H205.852V137.607H286.756V263.621ZM286.756 122.488H205.852V100.585C205.853 78.7087 214.243 57.6652 229.294 41.7888C244.345 25.9125 264.911 16.4122 286.756 15.2446V122.488ZM382.775 263.621H301.876V137.607H382.775V263.621ZM382.775 122.488H301.876V15.2446C323.721 16.4123 344.287 25.9127 359.337 41.7892C374.387 57.6657 382.776 78.7092 382.775 100.585V122.488Z" fill="#F5EBDD"/>
<path d="M20.1597 477.843C31.2936 477.843 40.3195 468.817 40.3195 457.683C40.3195 446.549 31.2936 437.523 20.1597 437.523C9.02582 437.523 0 446.549 0 457.683C0 468.817 9.02582 477.843 20.1597 477.843Z" fill="#B64CF2"/>
<path d="M469.765 293.346C469.768 293.902 469.655 294.453 469.432 294.963C467.872 298.516 461.204 299.041 454.572 296.134C449.017 293.705 445.241 289.637 445.08 286.293V330.649H469.78V293.346H469.765Z" fill="#FFBE21"/>
<path d="M460.267 283.281C453.635 280.374 446.978 280.899 445.407 284.452C445.154 285.035 445.042 285.669 445.079 286.303C445.24 289.647 449.017 293.715 454.571 296.144C461.203 299.051 467.86 298.526 469.431 294.973C469.654 294.463 469.767 293.912 469.764 293.356C469.78 289.97 465.957 285.767 460.267 283.281Z" fill="#A15842"/>
<path d="M488.702 307.977C488.54 311.321 484.764 315.388 479.21 317.822C472.573 320.725 465.921 320.205 464.345 316.647C464.124 316.138 464.011 315.589 464.012 315.035V330.638H488.707V307.977H488.702Z" fill="#FFBE21"/>
<path d="M488.374 306.123C486.814 302.571 480.146 302.046 473.509 304.953C467.824 307.445 464.001 311.642 464.012 315.033C464.011 315.588 464.124 316.136 464.345 316.645C465.905 320.203 472.573 320.723 479.21 317.821C484.764 315.387 488.54 311.319 488.702 307.975C488.739 307.341 488.627 306.706 488.374 306.123Z" fill="#A15842"/>
<path d="M464.734 330.659V315.539" stroke="#A15842" stroke-width="4" stroke-miterlimit="10" stroke-linecap="round"/>
<path d="M457.427 280V288.572" stroke="#30242A" stroke-width="4" stroke-linecap="round" stroke-linejoin="round"/>
<path d="M476.359 301.68V310.751" stroke="#30242A" stroke-width="4" stroke-linecap="round" stroke-linejoin="round"/>
<path d="M351.672 477.987C351.041 477.988 350.42 477.839 349.858 477.552C349.296 477.266 348.811 476.85 348.441 476.339C348.071 475.828 347.828 475.237 347.732 474.614C347.635 473.991 347.688 473.354 347.885 472.755L360.368 434.714C360.632 433.916 361.14 433.222 361.821 432.73C362.501 432.238 363.32 431.973 364.16 431.973H372.908C373.603 431.972 374.286 432.154 374.889 432.499C375.493 432.844 375.995 433.341 376.347 433.94C376.699 434.54 376.887 435.221 376.895 435.916C376.902 436.611 376.727 437.295 376.388 437.902L355.136 475.943C354.792 476.561 354.29 477.076 353.681 477.435C353.072 477.795 352.379 477.985 351.672 477.987Z" fill="#30242A"/>
<path d="M518.9 477.987C519.531 477.988 520.152 477.839 520.714 477.552C521.275 477.266 521.761 476.85 522.131 476.339C522.5 475.828 522.743 475.237 522.84 474.614C522.937 473.991 522.884 473.354 522.687 472.755L510.204 434.714C509.94 433.917 509.433 433.223 508.753 432.731C508.074 432.239 507.256 431.974 506.417 431.973H497.664C496.969 431.974 496.287 432.156 495.685 432.502C495.083 432.847 494.581 433.344 494.229 433.943C493.878 434.542 493.689 435.222 493.681 435.916C493.673 436.611 493.846 437.295 494.184 437.902L515.436 475.943C515.781 476.56 516.283 477.075 516.892 477.434C517.5 477.793 518.193 477.984 518.9 477.987Z" fill="#30242A"/>
<path d="M538.201 330.66H333.052V448.103H538.201V330.66Z" fill="#B64CF2" fill-opacity="0.6"/>
<path d="M523.077 345.777H348.172V432.98H523.077V345.777Z" fill="#B968E7"/>
<path d="M435.437 344.27V434.494" stroke="#A15842" stroke-width="4" stroke-miterlimit="10"/>
<path d="M456.049 394.666C458.968 394.666 461.333 392.301 461.333 389.382C461.333 386.464 458.968 384.098 456.049 384.098C453.131 384.098 450.765 386.464 450.765 389.382C450.765 392.301 453.131 394.666 456.049 394.666Z" fill="#30242A"/>
<path d="M415.198 394.666C418.117 394.666 420.483 392.301 420.483 389.382C420.483 386.464 418.117 384.098 415.198 384.098C412.28 384.098 409.914 386.464 409.914 389.382C409.914 392.301 412.28 394.666 415.198 394.666Z" fill="#30242A"/>
<path d="M81.0967 429.098V437.664H155.193V429.098H81.0967Z" fill="#A15842"/>
<path d="M167.4 473.557L149.045 363.422H160.269C161.472 363.422 162.625 362.945 163.476 362.094C164.326 361.243 164.804 360.09 164.804 358.887C164.804 357.684 164.326 356.531 163.476 355.68C162.625 354.829 161.472 354.352 160.269 354.352H76.1086C74.9058 354.352 73.7521 354.829 72.9016 355.68C72.051 356.531 71.5732 357.684 71.5732 358.887C71.5732 360.09 72.051 361.243 72.9016 362.094C73.7521 362.945 74.9058 363.422 76.1086 363.422H87.2443L68.8894 473.557C68.7988 474.102 68.828 474.661 68.975 475.194C69.122 475.727 69.3832 476.221 69.7406 476.643C70.0979 477.064 70.5428 477.403 71.0443 477.636C71.5458 477.868 72.0919 477.988 72.6446 477.989C73.5135 477.989 74.3565 477.692 75.0331 477.147C75.7097 476.602 76.1792 475.842 76.3635 474.993L100.684 363.422H135.605L159.92 474.993C160.106 475.842 160.577 476.602 161.255 477.147C161.932 477.692 162.775 477.989 163.644 477.989C164.197 477.988 164.743 477.868 165.245 477.636C165.746 477.403 166.191 477.064 166.548 476.643C166.906 476.221 167.167 475.727 167.314 475.194C167.461 474.661 167.49 474.102 167.4 473.557Z" fill="#FFBE21"/>
<path d="M160.269 363.422C161.472 363.422 162.625 362.945 163.476 362.094C164.326 361.243 164.804 360.09 164.804 358.887C164.804 357.684 164.326 356.531 163.476 355.68C162.625 354.829 161.472 354.352 160.269 354.352H76.1087C74.9058 354.352 73.7522 354.829 72.9016 355.68C72.0511 356.531 71.5732 357.684 71.5732 358.887C71.5732 360.09 72.0511 361.243 72.9016 362.094C73.7522 362.945 74.9058 363.422 76.1087 363.422H87.2444V363.563H100.674L100.705 363.422H135.626L135.657 363.563H149.086V363.422H160.269Z" fill="#A15842"/>
<path d="M165.256 428.951H218.828C219.494 417.576 221.871 402.487 223.842 382.104C225.595 364.03 227.103 348.858 227.005 336.333C226.838 315.456 173.432 340.723 173.432 340.723C173.432 345.285 174.353 349.664 174.379 353.908C174.442 364.935 168.855 374.318 164.866 387.617C158.817 407.782 163.857 428.951 163.857 428.951H165.256Z" fill="#4856DF"/>
<path d="M221.684 472.296H174.785C174.134 472.504 173.579 472.937 173.219 473.518C172.859 474.099 172.718 474.789 172.823 475.464C172.927 476.139 173.269 476.755 173.787 477.2C174.305 477.646 174.965 477.891 175.648 477.893L244.663 477.987C245.271 471.277 241.459 466.227 230.703 458.742C224.565 464.063 221.684 472.296 221.684 472.296Z" fill="#3EC1F3"/>
<path d="M228.285 457.114C226.057 455.673 224.133 453.811 222.621 451.632C218.98 446.29 218.21 439.097 218.808 428.949H172.383C172.473 436.536 173.02 444.111 174.021 451.632C175.207 460.146 176.809 466.002 178.094 472.161H175.654C175.36 472.16 175.066 472.206 174.786 472.296H221.685C221.685 472.296 224.566 464.062 230.704 458.773C229.934 458.228 229.128 457.675 228.285 457.114Z" fill="#A15842"/>
<path d="M219.37 419.837C216.498 414.122 214.541 407.991 213.57 401.669C210.174 378.072 212.187 365.974 202.611 355.379H174.593" stroke="#30242A" stroke-width="4" stroke-linecap="round" stroke-linejoin="round"/>
<path d="M236.841 430.964L236.893 431.089L278.253 411.72C275.033 402.087 271.668 389.272 266.139 372.498C260.959 356.801 257.531 345.072 254.286 335.996C249.747 339.265 244.149 340.72 238.593 340.075C233.036 339.429 227.922 336.73 224.253 332.507C220.585 328.284 218.627 322.842 218.765 317.25C218.903 311.658 221.126 306.319 224.998 302.282C202.919 292.306 124.501 285.8 124.501 285.8L80.14 279.246C77.7995 283.116 75.8074 289.248 74.7256 296.41H90.2251V312.986C90.2168 316.338 88.8803 319.55 86.5083 321.918C84.1363 324.286 80.9223 325.617 77.5706 325.62H76.6864C76.4784 325.62 76.2703 325.62 76.0675 325.62C80.3012 341.223 91.1925 354.367 113.422 354.367H203.142C212.718 364.951 210.705 377.049 214.101 400.657C216.879 419.969 230.043 434.204 230.043 434.204L236.841 430.964Z" fill="#4856DF"/>
<path d="M299.847 453.146L258.654 471.829C257.956 472.316 257.467 473.048 257.284 473.879C257.101 474.71 257.238 475.58 257.666 476.315C258.094 477.051 258.783 477.598 259.596 477.849C260.409 478.1 261.287 478.036 262.055 477.67L324.563 448.543C322.113 441.782 315.815 439.181 300.892 436.581L300.253 436.461C299.016 441.941 298.878 447.612 299.847 453.146Z" fill="#3EC1F3"/>
<path d="M300.253 436.439C295.957 435.617 292.587 434.187 289.804 432.023C284.676 428.028 281.534 421.527 278.252 411.738L236.893 431.107C240.398 439.164 245.318 447.637 250.005 455.033C254.098 461.472 258.004 467.084 260.631 470.844L259.138 471.567C258.969 471.65 258.807 471.748 258.654 471.859L299.848 453.176C298.872 447.625 299.01 441.936 300.253 436.439Z" fill="#A15842"/>
<path d="M241.189 340.234C245.892 340.237 250.476 338.753 254.285 335.995C247.831 317.854 242.234 310.296 225.309 302.422L224.997 302.281C221.955 305.454 219.912 309.45 219.122 313.774C218.333 318.098 218.832 322.559 220.557 326.602C222.282 330.645 225.158 334.091 228.826 336.513C232.494 338.935 236.793 340.225 241.189 340.224V340.234Z" fill="#3EC1F3"/>
<path d="M77.5698 325.619C80.9278 325.619 84.1484 324.285 86.5233 321.911C88.8983 319.537 90.2332 316.317 90.2346 312.959V296.383H74.7351C73.3672 305.376 73.4452 315.955 76.0666 325.603C76.2695 325.603 76.4775 325.603 76.6856 325.603L77.5698 325.619Z" fill="#3EC1F3"/>
<path d="M202.377 355.609H217.497" stroke="#30242A" stroke-width="4" stroke-linecap="round" stroke-linejoin="round"/>
<path d="M267.413 195.32C267.413 195.32 240.195 164.072 208.036 152.738" stroke="#30242A" stroke-width="4" stroke-linecap="round" stroke-linejoin="round"/>
<path d="M182.041 164.946C181.052 162.558 184.35 158.814 189.842 155.651C182.405 153.8 177.12 150.351 177.651 147.454C178.181 144.557 184.34 143.194 191.954 144.089C187.949 139.2 186.186 134.529 187.954 132.646C190.207 130.238 197.353 133.276 203.912 139.408C209.633 144.765 213.014 150.726 212.296 153.758C211.895 156.847 206.627 161.227 199.387 164.223C191.06 167.676 183.305 167.999 182.041 164.946Z" fill="#3546AB"/>
<path d="M212.567 163.463C217.812 163.463 222.064 159.211 222.064 153.966C222.064 148.721 217.812 144.469 212.567 144.469C207.321 144.469 203.069 148.721 203.069 153.966C203.069 159.211 207.321 163.463 212.567 163.463Z" fill="#30242A"/>
<path d="M232.577 166.195C235.186 165.226 234 155.55 229.928 144.581C225.855 133.613 220.439 125.507 217.829 126.476C215.22 127.445 216.406 137.122 220.478 148.09C224.551 159.058 229.968 167.164 232.577 166.195Z" fill="#30242A"/>
<path d="M232.112 168.102C232.112 168.102 236.148 179.19 234.13 190.784" stroke="#30242A" stroke-width="4" stroke-linecap="round" stroke-linejoin="round"/>
<path d="M158.511 123.934C149.908 133.613 140.765 135.751 140.765 135.751C134.851 129.301 124.121 129.301 122.483 138.44C120.699 148.566 133.223 151.354 133.223 151.354C133.223 151.354 136.38 164.419 131.538 170.874C127.262 176.595 121.77 177.537 110.515 178.796C125.182 203.579 140.161 201.623 145.149 201.623C157.112 201.623 160.482 187.742 161.424 180.585C158.7 179.635 155.921 178.852 153.102 178.239L151.489 168.565C151.489 168.565 159.016 171.249 165.47 167.488C171.925 163.728 173.537 156.732 171.384 145.981C170.11 139.61 170.156 131.73 169.064 124.688C164.804 125.411 158.511 123.934 158.511 123.934Z" fill="#A15842"/>
<path d="M247.992 177.931C245.708 168.792 227.832 163.836 227.832 163.836C227.832 163.836 228.903 143.322 224.3 142.667C220.774 142.147 217.242 150.734 214.221 167.367C210.84 185.956 212.707 220.289 212.707 220.289C212.707 220.289 208.967 216.893 203.662 212.165C203.132 213.236 202.319 214.142 201.31 214.784C200.301 215.426 199.136 215.779 197.941 215.806C198.695 216.762 199.168 217.909 199.305 219.12C199.443 220.33 199.24 221.554 198.72 222.655C198.199 223.756 197.382 224.69 196.359 225.352C195.337 226.013 194.15 226.377 192.932 226.4C193.687 227.357 194.159 228.504 194.297 229.714C194.434 230.924 194.231 232.149 193.711 233.25C193.19 234.351 192.373 235.285 191.35 235.947C190.328 236.608 189.141 236.971 187.923 236.995C188.715 237.999 189.195 239.213 189.305 240.486C189.414 241.76 189.148 243.038 188.54 244.162C187.931 245.286 187.007 246.207 185.88 246.812C184.754 247.417 183.475 247.678 182.202 247.564C193.244 254.752 208.255 263.136 218.257 263.136C270.674 263.115 249.505 183.98 247.992 177.931Z" fill="#A15842"/>
<path d="M188.683 243.827C189.203 242.726 189.406 241.502 189.269 240.292C189.132 239.082 188.661 237.934 187.908 236.977C189.126 236.953 190.313 236.59 191.335 235.928C192.358 235.267 193.175 234.333 193.696 233.232C194.216 232.131 194.419 230.906 194.281 229.696C194.144 228.486 193.671 227.338 192.917 226.382C194.135 226.359 195.321 225.995 196.344 225.334C197.366 224.672 198.184 223.738 198.704 222.637C199.225 221.536 199.428 220.312 199.29 219.101C199.153 217.891 198.68 216.744 197.926 215.788C199.121 215.761 200.286 215.408 201.295 214.766C202.303 214.124 203.117 213.218 203.647 212.147C194.503 204.002 180.715 191.925 173.376 186.5C169.824 183.873 165.299 181.928 161.413 180.586C160.498 187.764 157.148 201.625 145.186 201.625C140.219 201.625 125.219 203.58 110.551 178.797L105.839 179.317C89.6113 181.122 82.2257 189.855 77.8775 200.288C75.1885 206.743 73.0352 218.57 73.0352 218.57C71.3669 229.414 70.5081 240.366 70.4658 251.338L91.567 270.868L148.218 272.267C152.754 265.578 161.075 253.226 163.822 248.487C167.348 242.438 167.853 237.398 167.853 237.398C167.853 237.398 173.907 242.131 182.203 247.536C183.532 247.652 184.865 247.359 186.024 246.696C187.182 246.034 188.11 245.032 188.683 243.827Z" fill="#1E122B"/>
<path d="M164.43 112.1C157.981 104.039 140.234 98.6607 126.254 108.876C112.273 119.091 113.35 135.761 113.885 142.215C113.885 142.215 98.8331 137.373 88.0771 148.665C84.9642 151.893 82.6972 155.84 81.4777 160.156C80.2581 164.471 80.1238 169.021 81.0867 173.401C81.0867 173.401 61.2807 172.845 57.4266 191.148C55.2369 201.55 59.3251 208.473 63.8605 212.759C66.5205 215.255 69.6281 217.226 73.0197 218.568C73.0197 218.568 75.173 206.741 77.862 200.286C82.2102 189.853 89.5959 181.12 105.823 179.315L110.536 178.795C121.791 177.536 127.284 176.579 131.559 170.874C136.396 164.419 133.223 151.354 133.223 151.354C133.223 151.354 120.683 148.566 122.467 138.45C124.085 129.311 134.836 129.311 140.749 135.761C140.749 135.761 149.893 133.613 158.496 123.933C158.496 123.933 164.789 125.41 169.08 124.687C168.347 119.84 167.057 115.393 164.43 112.1Z" fill="#30242A"/>
<path d="M249.11 185.116C247.586 184.414 246.676 182.646 246.936 179.265C246.936 179.265 243.784 183.218 240.429 181.46C237.075 179.702 238.417 175.915 238.417 175.915C238.417 175.915 235.39 177.933 232.872 175.395C230.589 173.112 232.352 169.346 232.352 169.346C232.352 169.346 229.002 170.714 227.817 168.337C226.324 165.362 228.139 162.247 230.105 159.859" stroke="#30242A" stroke-width="8" stroke-linecap="round" stroke-linejoin="round"/>
<path d="M80.1289 173.84C80.6988 176.535 81.7261 179.112 83.1664 181.46" stroke="black" stroke-width="4" stroke-miterlimit="10" stroke-linecap="round"/>
<path d="M211.698 220.941L212.962 236.654" stroke="#30242A" stroke-width="4" stroke-linecap="round" stroke-linejoin="round"/>
<path d="M166.084 220.008C169.376 225.937 169.335 233.052 168.908 237.27" stroke="#30242A" stroke-width="4" stroke-linecap="round" stroke-linejoin="round"/>
<path d="M136.344 236.652L120.215 237.157" stroke="#30242A" stroke-width="4" stroke-linecap="round" stroke-linejoin="round"/>
<path d="M151.214 169.557C148.96 168.672 146.761 167.653 144.629 166.504" stroke="#30242A" stroke-width="4" stroke-linecap="round" stroke-linejoin="round"/>
<path d="M155.244 184.485L154.365 178.914" stroke="#30242A" stroke-width="4" stroke-linecap="round" stroke-linejoin="round"/>
<path d="M112.798 142.418L113.916 151.718" stroke="black" stroke-width="4" stroke-miterlimit="10" stroke-linecap="round"/>
<path d="M166.084 153.485C164.944 154.224 161.168 154.468 159.358 151.176" stroke="#30242A" stroke-width="4" stroke-linecap="round" stroke-linejoin="round"/>
<path d="M135.839 142.896L130.799 140.379" stroke="#30242A" stroke-width="4" stroke-linecap="round" stroke-linejoin="round"/>
<path d="M159.109 140.664C158.302 141.762 154.5 143.889 151.64 141.46" stroke="#30242A" stroke-width="4" stroke-linecap="round" stroke-linejoin="round"/>
<path d="M171.357 139.081C170.755 139.209 170.134 139.217 169.529 139.105C168.924 138.992 168.347 138.761 167.831 138.426" stroke="#30242A" stroke-width="4" stroke-linecap="round" stroke-linejoin="round"/>
<path d="M164.539 140.953C165.116 142.259 165.672 143.699 165.553 144.251C165.375 144.921 164.976 145.512 164.419 145.925" stroke="#30242A" stroke-width="4" stroke-linecap="round" stroke-linejoin="round"/>
<path d="M133.078 148.989L126.196 155.48C125.824 155.831 125.548 156.272 125.394 156.761C125.24 157.249 125.214 157.769 125.319 158.27C125.423 158.771 125.654 159.238 125.99 159.624C126.326 160.011 126.755 160.305 127.237 160.478L135.371 163.365C135.855 163.536 136.374 163.58 136.879 163.493C137.385 163.406 137.859 163.19 138.258 162.867C138.656 162.544 138.964 162.124 139.154 161.648C139.343 161.171 139.407 160.654 139.34 160.146L138.086 150.783C138.013 150.239 137.792 149.726 137.446 149.299C137.101 148.872 136.645 148.548 136.128 148.363C135.611 148.178 135.053 148.138 134.515 148.249C133.977 148.359 133.48 148.615 133.078 148.989Z" fill="#F4E6D8"/>
<path d="M231.863 150.713C231.863 150.713 235.39 148.695 238.417 149.704C243.098 151.265 242.411 155.623 242.411 155.623C242.411 155.623 248.975 153.257 250.249 160.195C250.249 160.195 256.168 161.521 254.837 167.44C254.837 167.44 259.627 167.695 258.675 173.973C257.723 180.251 253.536 185.468 251.019 185.468C248.419 185.468 246.583 183.871 246.936 179.226C246.936 179.226 243.784 183.179 240.43 181.421C237.075 179.663 238.417 175.877 238.417 175.877C238.417 175.877 235.39 177.895 232.872 175.357C230.589 173.073 232.352 169.308 232.352 169.308C232.352 169.308 229.003 170.676 227.817 168.299C225.294 163.259 232.233 157.839 233.361 156.206L231.863 150.713Z" fill="#A15842"/>
<path d="M230.365 171.144C233.829 167.966 239.727 161.969 242.526 155.676" stroke="#30242A" stroke-width="4" stroke-linecap="round" stroke-linejoin="round"/>
<path d="M236.726 178.399C242.482 173.503 247.181 167.486 250.535 160.715" stroke="#30242A" stroke-width="4" stroke-linecap="round" stroke-linejoin="round"/>
<path d="M245.636 182.134C247.196 180.231 252.652 173.391 255.357 167.977" stroke="#30242A" stroke-width="4" stroke-linecap="round" stroke-linejoin="round"/>
<path d="M244.658 297.897H157.361L177.204 235.207C177.79 233.362 178.95 231.751 180.513 230.608C182.077 229.465 183.964 228.85 185.9 228.852H259.668C261.102 228.851 262.515 229.188 263.793 229.836C265.072 230.484 266.18 231.424 267.027 232.58C267.874 233.737 268.437 235.076 268.669 236.491C268.901 237.905 268.797 239.354 268.365 240.721L251.955 292.561C251.462 294.109 250.489 295.461 249.177 296.42C247.866 297.379 246.283 297.896 244.658 297.897Z" fill="#30242A"/>
<path d="M106.697 290.84C106.439 291.652 106.377 292.513 106.515 293.354C106.652 294.195 106.986 294.991 107.489 295.679C107.992 296.366 108.65 296.925 109.41 297.311C110.17 297.697 111.01 297.898 111.862 297.898H244.658C246.282 297.894 247.862 297.374 249.171 296.413C250.48 295.452 251.45 294.099 251.94 292.551L252.46 290.84H106.697Z" fill="#30242A"/>
<path d="M231.286 257.977C229.257 255.2 220.035 262.533 219.359 263.142C219.006 262.533 214.21 255.2 210.689 257.977C207.636 260.385 214.33 271.136 216.135 273.877C216.209 273.961 216.301 274.027 216.403 274.073C216.505 274.119 216.616 274.142 216.728 274.142C216.839 274.142 216.95 274.119 217.052 274.073C217.154 274.027 217.246 273.961 217.32 273.877C220.602 271.11 233.049 260.359 231.286 257.977Z" fill="#FFBE21"/>
<path d="M222.859 256.015C223.592 253.662 223.561 251.559 222.791 251.319C222.02 251.079 220.801 252.792 220.068 255.146C219.335 257.499 219.366 259.601 220.137 259.841C220.907 260.081 222.126 258.368 222.859 256.015Z" fill="#FFBE21"/>
<path d="M56.6769 241.06C57.8099 241.496 59.042 241.61 60.2358 241.388C61.4297 241.165 62.5383 240.616 63.4384 239.801C63.5451 241.015 63.9893 242.176 64.7209 243.151C65.4524 244.127 66.4421 244.878 67.5782 245.321C68.7142 245.763 69.9514 245.879 71.15 245.656C72.3485 245.432 73.4607 244.878 74.3608 244.056C74.4703 245.269 74.9162 246.427 75.6484 247.401C76.3806 248.374 77.3699 249.124 78.5051 249.565C79.6402 250.007 80.8761 250.123 82.0737 249.9C83.2712 249.678 84.3828 249.125 85.2833 248.305C85.3666 249.263 85.6603 250.19 86.1434 251.021C86.6264 251.852 87.2869 252.567 88.0778 253.113C88.8687 253.659 89.7704 254.025 90.7186 254.182C91.6669 254.34 92.6383 254.287 93.5635 254.026L101.428 232.904C104.457 224.796 105.892 216.18 105.656 207.528L104.86 179.441C104.86 179.441 86.7136 180.95 76.1292 194.057C70.6992 200.782 60.042 218.549 53.2129 237.866C53.9305 239.324 55.1654 240.463 56.6769 241.06Z" fill="#1E122B"/>
<path d="M89.439 253.818C88.2999 253.379 87.3064 252.63 86.571 251.656C85.8356 250.681 85.3877 249.52 85.2781 248.305C84.3775 249.125 83.266 249.677 82.0684 249.9C80.8709 250.123 79.635 250.007 78.4998 249.565C77.3647 249.123 76.3753 248.374 75.6431 247.4C74.911 246.427 74.4651 245.268 74.3556 244.055C73.4555 244.878 72.3433 245.432 71.1447 245.655C69.9462 245.879 68.709 245.763 67.5729 245.32C66.4368 244.878 65.4471 244.127 64.7156 243.151C63.9841 242.176 63.5399 241.015 63.4331 239.801C62.6844 240.483 61.7877 240.981 60.8134 241.258C59.8392 241.534 58.8141 241.581 57.8189 241.394C56.8236 241.207 55.8854 240.791 55.078 240.18C54.2706 239.569 53.6161 238.778 53.166 237.871C47.2471 254.614 44.1992 272.526 49.9309 285.42C62.2681 313.189 99.2952 303.416 108.033 300.847C116.771 298.277 133.748 289.534 145.06 291.079C156.373 292.624 169.225 298.277 171.285 291.079C171.285 291.079 178.207 290.902 176.028 284.318C176.028 284.318 179.508 283.886 180.023 281.316C181.063 276.172 168.71 271.549 168.71 271.549C168.71 271.549 178.483 273.109 180.537 271.029C183.138 268.428 180.61 264.231 164.648 260.361C147.115 256.117 123.975 258.686 89.5222 264.855L93.5531 254.021C92.1961 254.402 90.7519 254.331 89.439 253.818Z" fill="#A15842"/>
<path d="M101.563 230.102L90.0527 263.701" stroke="#30242A" stroke-width="4" stroke-linecap="round" stroke-linejoin="round"/>
<path d="M171.816 271.917C166.23 269.795 156.93 266.539 149.711 265.363" stroke="#30242A" stroke-width="4" stroke-linecap="round" stroke-linejoin="round"/>
<path d="M176.174 284.046C168.997 280.816 155.286 274.954 147.911 273.852" stroke="#30242A" stroke-width="4" stroke-linecap="round" stroke-linejoin="round"/>
<path d="M89.6062 263.773C85.7365 264.398 79.6616 265.433 73.5918 266.644" stroke="#30242A" stroke-width="4" stroke-linecap="round" stroke-linejoin="round"/>
<path d="M171.071 291.785C165.688 289.044 154.344 283.593 146.371 282.074" stroke="#30242A" stroke-width="4" stroke-linecap="round" stroke-linejoin="round"/>
<path d="M412.005 225.418C412.005 225.418 407.917 234.614 397.193 234.614C386.468 234.614 382.359 225.418 382.359 225.418C382.359 225.418 352.192 294.385 381.839 330.658H412.489C442.12 294.385 412.005 225.418 412.005 225.418Z" fill="#3EC1F3"/>
<path d="M397.167 234.614C407.892 234.614 411.98 225.418 411.98 225.418H382.333C382.333 225.418 386.437 234.614 397.167 234.614Z" fill="#30242A"/>
<path d="M424.873 286.82C408.198 287.117 388.465 293.14 373.277 314.387" stroke="#F5EBDD" stroke-width="4" stroke-linecap="round" stroke-linejoin="round"/>
<path d="M370.609 269.94C381.802 267.209 402.997 264.609 423.542 269.498" stroke="#F5EBDD" stroke-width="4" stroke-linecap="round" stroke-linejoin="round"/>
<path d="M423.447 304.523C415.989 304.612 402.201 313.064 403.719 330.098" stroke="#F5EBDD" stroke-width="4" stroke-linecap="round" stroke-linejoin="round"/>
<path d="M395.289 231.554C394.977 224.143 393.005 194.688 381.303 177.41" stroke="#30242A" stroke-width="4" stroke-miterlimit="10" stroke-linecap="round"/>
<path d="M392.849 208.909C394.345 206.373 386.415 198.923 375.136 192.268C363.856 185.614 353.5 182.275 352.004 184.811C350.508 187.347 358.438 194.797 369.718 201.451C380.997 208.106 391.353 211.445 392.849 208.909Z" fill="#30242A"/>
<path d="M388.469 135.402C390.665 134.15 389.537 128.034 385.948 121.74C382.36 115.447 377.671 111.36 375.475 112.612C373.279 113.864 374.408 119.981 377.996 126.274C381.584 132.568 386.273 136.654 388.469 135.402Z" fill="#30242A"/>
<path d="M349.841 162.085C351.022 159.458 356.577 159.265 363.328 161.278C359.167 153.835 357.893 146.913 360.644 145.129C363.395 143.345 369.21 147.292 374.313 154.142C375.212 147.157 377.647 142.18 380.554 142.148C384.226 142.148 387.232 150.247 387.269 160.264C387.291 163.129 387.037 165.989 386.509 168.804C384.908 168.071 383.149 167.75 381.392 167.869C379.635 167.988 377.936 168.545 376.449 169.488C374.961 170.431 373.733 171.731 372.876 173.269C372.019 174.807 371.56 176.536 371.54 178.297C368.848 177.636 366.222 176.727 363.697 175.582C354.527 171.478 348.338 165.439 349.841 162.085Z" fill="#3546AB"/>
<path d="M376.331 169.557C377.823 168.587 379.537 168.01 381.312 167.88C383.087 167.75 384.866 168.071 386.484 168.813C385.589 173.468 383.971 176.922 382.026 178.045C380.175 179.392 376.253 179.444 371.515 178.305C371.534 176.563 371.984 174.853 372.824 173.326C373.665 171.8 374.869 170.505 376.331 169.557Z" fill="#30242A"/>
<path d="M399.189 231.11C400.625 222.924 408.099 182.786 420.062 160.078" stroke="#30242A" stroke-width="4" stroke-miterlimit="10" stroke-linecap="round"/>
<path d="M460.44 215.7C461.3 213.044 449.809 206.942 434.774 202.071C419.738 197.201 406.852 195.405 405.992 198.062C405.131 200.718 416.622 206.82 431.658 211.69C446.693 216.561 459.579 218.356 460.44 215.7Z" fill="#30242A"/>
<path d="M417.81 124.889C420.681 124.629 423.572 129.378 425.128 136.248C429.559 128.967 434.979 124.463 437.886 125.987C440.794 127.51 440.201 134.511 436.731 142.318C443.264 139.681 448.814 139.348 450.254 141.855C452.065 145.049 446.473 151.649 437.772 156.59C435.29 158.013 432.677 159.194 429.97 160.117C429.822 158.364 429.238 156.675 428.273 155.205C427.307 153.734 425.99 152.528 424.441 151.695C422.892 150.862 421.159 150.428 419.4 150.434C417.64 150.44 415.91 150.884 414.366 151.727C413.624 149.054 413.127 146.319 412.884 143.556C411.922 133.58 414.153 125.222 417.81 124.889Z" fill="#3546AB"/>
<path d="M424.296 151.635C425.873 152.46 427.217 153.67 428.201 155.153C429.186 156.636 429.78 158.344 429.929 160.118C425.43 161.621 421.607 161.907 419.693 160.763C417.612 159.811 415.641 156.415 414.31 151.728C415.837 150.89 417.548 150.443 419.291 150.426C421.033 150.41 422.753 150.825 424.296 151.635Z" fill="#30242A"/>
<path d="M448.819 172.508V172.549C446.373 173.558 444.393 175.447 443.271 177.843C442.149 180.239 441.965 182.969 442.757 185.494C443.548 188.019 445.257 190.155 447.546 191.482C449.835 192.809 452.538 193.23 455.123 192.662V192.704C441.418 196.995 428.893 195.955 427.146 190.374C425.398 184.793 435.114 176.799 448.819 172.508Z" fill="#3546AB"/>
<path d="M445.558 189.997C446.76 189.515 447.736 188.597 448.289 187.427C448.843 186.256 448.934 184.92 448.544 183.685C448.154 182.45 447.312 181.408 446.186 180.769C445.06 180.129 443.734 179.938 442.474 180.234C442.819 178.529 443.58 176.935 444.689 175.594C445.797 174.254 447.22 173.207 448.83 172.547L455.133 192.66C453.441 193.034 451.683 192.986 450.014 192.522C448.344 192.058 446.814 191.191 445.558 189.997Z" fill="#FFB494"/>
<path d="M448.523 183.704C448.909 184.934 448.818 186.264 448.269 187.43C447.72 188.596 446.752 189.512 445.558 189.998C444.26 188.764 443.296 187.222 442.756 185.514C442.217 183.807 442.119 181.99 442.474 180.235C443.733 179.947 445.056 180.144 446.177 180.787C447.298 181.43 448.135 182.471 448.523 183.704Z" fill="#30242A"/>
</svg>
